<?xml version="1.0" encoding="UTF-8" standalone="no"?>
<svg xmlns:dc="http://purl.org/dc/elements/1.1/" xmlns:cc="http://creativecommons.org/ns#"
  xmlns:rdf="http://www.w3.org/1999/02/22-rdf-syntax-ns#" xmlns:svg="http://www.w3.org/2000/svg"
  xmlns="http://www.w3.org/2000/svg" viewBox="30 270 300 300"
  xml:space="preserve" id="svg2" version="1.1">
  <metadata id="metadata8">
    <rdf:RDF>
      <cc:Work rdf:about="">
        <dc:format>image/svg+xml</dc:format>
        <dc:type rdf:resource="http://purl.org/dc/dcmitype/StillImage" />
      </cc:Work>
    </rdf:RDF>
  </metadata>
  <defs id="defs6">
    <clipPath id="clipPath24" clipPathUnits="userSpaceOnUse">
      <!-- Font Gradient -->
      <path id="path22"
        d="m 5116.71,2737.03 v 81.36 c 0,51.02 13.61,71.72 55.28,74.55 h 288.29 v -182.27 c -4.26,-34.29 -16.73,-48.19 -55.28,-48.19 h -226.21 c -47.05,0 -62.08,20.69 -62.08,74.55 z m -139.46,17.86 c 0,-128.41 84.19,-198.71 222.24,-198.71 h 42.8 c 107.43,0 184.82,2.84 217.99,84.19 v -84.19 h 137.76 v 534.05 c 0,128.13 -97.8,198.71 -235.85,198.71 H 5051.8 v -106.3 h 360 c 36,0 48.48,-23.52 48.48,-60.66 v -122.74 h -260.79 c -138.05,0 -222.24,-70.59 -222.24,-198.71 z m -332.5,-44.22 c -3.97,-34.29 -16.44,-48.19 -55,-48.19 h -225.07 c -46.76,0 -62.08,20.69 -62.08,74.55 v 371.06 c 0,51.03 13.9,71.71 55.28,74.55 h 231.87 c 41.39,-2.84 55,-23.52 55,-74.55 z m 139.46,854.08 h -138.04 v -360 c -33.17,81.36 -110.28,84.19 -217.99,84.19 h -42.8 c -137.77,0 -221.96,-70.58 -221.96,-198.71 v -335.34 c 0,-128.41 84.19,-198.71 221.96,-198.71 h 42.8 c 107.71,0 184.82,2.84 217.99,84.19 v -84.19 h 138.04 z m -925.8,-587.62 h -362.83 v 144.85 c 0,28.91 12.47,60.66 48.2,60.66 h 266.45 c 35.71,0 48.18,-31.75 48.18,-60.66 z m 139.47,-106.3 v 219.4 c 0,128.13 -98.08,198.71 -236.13,198.71 h -169.51 c -138.04,0 -235.84,-70.58 -235.84,-198.71 v -335.34 c 0,-128.41 97.8,-198.71 235.84,-198.71 h 405.64 v 106.3 h -454.1 c -35.73,0 -48.2,23.54 -48.2,60.66 v 147.69 z M 2642.92,2556.18 h 630.71 v 117.36 h -483.02 v 794.55 h -147.69 z" />
    </clipPath>
    <linearGradient id="linearGradient34" spreadMethod="pad"
      gradientTransform="matrix(2955.12,0,0,-2955.12,2642.92,3060.47)" gradientUnits="userSpaceOnUse" y2="0" x2="1"
      y1="0" x1="0">
      <stop id="stop26" offset="0" style="stop-opacity:1;stop-color:#77add1" />
      <stop id="stop28" offset="0.189014" style="stop-opacity:1;stop-color:#64c6ee" />
      <stop id="stop30" offset="0.994475" style="stop-opacity:1;stop-color:#7b3199" />
      <stop id="stop32" offset="1" style="stop-opacity:1;stop-color:#7b3199" />
    </linearGradient>
    <linearGradient id="linearGradient44" spreadMethod="pad"
      gradientTransform="matrix(1875.15,0,0,-1875.15,364.686,2981.28)" gradientUnits="userSpaceOnUse" y2="0" x2="1"
      y1="0" x1="0">
      <stop id="stop38" offset="0" style="stop-opacity:1;stop-color:#7cd3c9" />
      <stop id="stop40" offset="0.994475" style="stop-opacity:1;stop-color:#912d99" />
      <stop id="stop42" offset="1" style="stop-opacity:1;stop-color:#912d99" />
    </linearGradient>
    <!-- No Diff -->
    <clipPath id="clipPath54" clipPathUnits="userSpaceOnUse">
      <path id="path52"
        d="m 760.719,2701.88 c 88.719,-132.65 206.929,-250.3 356.031,-352.34 37.13,-25.23 79.65,-36.85 121.32,-34.58 41.39,1.98 82.49,17.85 116.79,46.77 130.11,110.26 233.01,236.97 307.27,381.26 73.14,142.01 118.49,300.76 134.36,477.63 3.97,43.66 -7.65,85.61 -30.89,120.2 -23.81,35.43 -59.53,63.49 -102.9,77.95 -160.16,54.42 -320.88,77.38 -482.74,68.03 -162.43,-9.35 -326.269,-51.31 -492.659,-127.28 -40.821,-18.7 -72.285,-48.75 -91.281,-85.04 -18.704,-36.28 -25.508,-78.52 -17.29,-121.89 31.75,-165.26 91.848,-316.06 181.989,-450.71 z m 300.751,-433.41 c -159.306,109.13 -286.298,235.84 -382.111,378.99 -97.793,145.99 -162.992,308.69 -197.004,486.71 -12.472,65.48 -1.984,130.11 26.926,185.39 28.918,55.27 76.25,101.19 137.481,128.97 177.734,81.36 353.478,126.14 527.818,136.35 174.61,9.92 347.52,-14.74 519.59,-73.14 64.06,-21.82 117.07,-63.49 152.78,-116.5 35.15,-52.73 53.01,-116.79 47.06,-183.4 -17.3,-189.92 -66.05,-360.85 -144.85,-513.64 -79.94,-155.91 -191.06,-292.82 -331.09,-411.31 -51.02,-43.08 -112.54,-66.61 -175.18,-69.73 -62.65,-3.4 -126.14,13.61 -181.42,51.31 z" />
    </clipPath>
    <linearGradient id="linearGradient70" spreadMethod="pad"
      gradientTransform="matrix(1417.96,0,0,-1417.96,477.178,2901.88)" gradientUnits="userSpaceOnUse" y2="0" x2="1"
      y1="0" x1="0">
      <stop id="stop56" offset="0" style="stop-opacity:1;stop-color:#bce263" />
      <stop id="stop58" offset="0.11811164" style="stop-opacity:1;stop-color:#bce263" />
      <stop id="stop60" offset="0.509456" style="stop-opacity:1;stop-color:#7ab43c" />
      <stop id="stop62" offset="0.76356415" style="stop-opacity:1;stop-color:#7ab43c" />
      <stop id="stop64" offset="0.994475" style="stop-opacity:1;stop-color:#4e9133" />
      <stop id="stop66" offset="0.99510668" style="stop-opacity:1;stop-color:#4e9133" />
      <stop id="stop68" offset="1" style="stop-opacity:1;stop-color:#4e9133" />
    </linearGradient>
    <linearGradient id="linearGradient80" spreadMethod="pad"
      gradientTransform="matrix(942.78,0,0,-942.78,720.659,3019.8)" gradientUnits="userSpaceOnUse" y2="0" x2="1" y1="0"
      x1="0">
      <stop id="stop74" offset="0" style="stop-opacity:1;stop-color:#7cd3c9" />
      <stop id="stop76" offset="0.994475" style="stop-opacity:1;stop-color:#912d99" />
      <stop id="stop78" offset="1" style="stop-opacity:1;stop-color:#912d99" />
    </linearGradient>
  </defs>
  <g transform="matrix(1.3333333,0,0,-1.3333333,0,795.04)" id="g10">

    <g transform="scale(0.1)" id="g12">
      <!-- Outer Circle -->
      <path id="path46" style="fill:url(#linearGradient44);fill-opacity:1;fill-rule:evenodd;stroke:none"
        d="m 462.512,2989.03 c 1.133,-223.65 47.902,-452.13 142.867,-685.13 24.66,-60.94 67.465,-109.13 120.187,-139.47 52.727,-30.61 115.657,-43.93 180.852,-35.14 236.122,32.03 453.262,104.03 650.552,218.55 193.89,112.53 368.79,266.17 523.27,463.18 41.11,52.15 61.8,113.67 61.8,174.9 0.28,61.51 -20.13,123.02 -60.95,175.18 -145.7,186.8 -317.19,337.89 -515.62,450.99 -194.74,110.83 -415.84,185.1 -665.005,220.82 -65.481,9.36 -128.692,-3.4 -181.699,-33.74 C 665.758,3768.85 622.672,3720.94 597.441,3660 507.301,3440.6 461.379,3216.94 462.512,2989.03 Z m 51.875,-721.98 c -99.5,244.06 -148.535,484.73 -149.668,721.42 -1.418,241.23 47.054,477.63 142.297,708.66 33.73,81.92 91.843,146.27 163.273,187.08 71.719,40.82 156.473,58.11 244.066,45.64 261.355,-37.13 494.075,-115.65 699.595,-232.72 209.76,-119.34 390.61,-278.65 544.25,-475.66 54.71,-70.01 81.92,-152.78 81.63,-235.55 0,-83.06 -27.49,-165.83 -82.2,-235.56 -162.42,-206.65 -346.68,-368.5 -551.62,-487.27 -208.35,-121.05 -437.67,-197.02 -686.549,-230.75 -87.313,-11.9 -171.785,5.95 -242.934,47.05 -71.433,41.39 -128.976,106.02 -162.14,187.66 v 0" />
      <g id="g48">
        <g clip-path="url(#clipPath54)" id="g50">
          <!-- Kanto Circle-->
          <path id="path72" style="fill:url(#linearGradient70);fill-opacity:1;fill-rule:nonzero;stroke:none"
            d="m 760.719,2701.88 c 88.719,-132.65 206.929,-250.3 356.031,-352.34 37.13,-25.23 79.65,-36.85 121.32,-34.58 41.39,1.98 82.49,17.85 116.79,46.77 130.11,110.26 233.01,236.97 307.27,381.26 73.14,142.01 118.49,300.76 134.36,477.63 3.97,43.66 -7.65,85.61 -30.89,120.2 -23.81,35.43 -59.53,63.49 -102.9,77.95 -160.16,54.42 -320.88,77.38 -482.74,68.03 -162.43,-9.35 -326.269,-51.31 -492.659,-127.28 -40.821,-18.7 -72.285,-48.75 -91.281,-85.04 -18.704,-36.28 -25.508,-78.52 -17.29,-121.89 31.75,-165.26 91.848,-316.06 181.989,-450.71 z m 300.751,-433.41 c -159.306,109.13 -286.298,235.84 -382.111,378.99 -97.793,145.99 -162.992,308.69 -197.004,486.71 -12.472,65.48 -1.984,130.11 26.926,185.39 28.918,55.27 76.25,101.19 137.481,128.97 177.734,81.36 353.478,126.14 527.818,136.35 174.61,9.92 347.52,-14.74 519.59,-73.14 64.06,-21.82 117.07,-63.49 152.78,-116.5 35.15,-52.73 53.01,-116.79 47.06,-183.4 -17.3,-189.92 -66.05,-360.85 -144.85,-513.64 -79.94,-155.91 -191.06,-292.82 -331.09,-411.31 -51.02,-43.08 -112.54,-66.61 -175.18,-69.73 -62.65,-3.4 -126.14,13.61 -181.42,51.31 v 0" />
        </g>
      </g>
      <!-- Inner Circle-->
      <path id="path82" style="fill:url(#linearGradient80);fill-opacity:1;fill-rule:evenodd;stroke:none"
        d="m 935.898,3147.21 c -54.71,-85.89 -93.543,-185.38 -115.085,-298.77 -4.821,-24.94 -1.418,-49.33 9.07,-69.74 10.207,-20.69 27.496,-37.98 49.605,-48.75 97.508,-46.78 197.292,-73.42 300.192,-78.81 101.19,-5.1 205.51,9.92 312.94,46.78 23.81,8.21 42.81,23.53 55.56,42.8 12.48,19.56 18.71,43.37 16.44,68.88 -9.07,108.28 -36.57,208.92 -83.9,301.61 -46.49,91.28 -111.97,175.18 -197.58,251.15 -18.71,16.44 -41.1,25.51 -63.78,26.93 -22.67,1.13 -45.92,-5.11 -66.33,-19.28 -88.72,-61.51 -161.292,-135.78 -217.132,-222.8 z M 724.434,2866.87 c 24.093,125.28 67.461,236.12 128.976,332.78 63.211,98.93 144.563,182.27 243.5,250.87 38.83,27.21 83.9,39.11 128.12,36.56 44.22,-2.55 87.31,-19.84 123.03,-51.59 95.24,-84.47 168.37,-178.01 220.25,-279.78 53,-104.31 84.19,-217.14 94.39,-337.89 3.97,-47.61 -8.22,-92.98 -32.6,-130.39 -24.09,-37.42 -60.66,-66.9 -105.45,-82.21 -119.34,-41.1 -236.12,-57.83 -349.79,-51.87 -115.94,6.24 -228.473,36 -337.325,88.44 -42.805,20.41 -75.398,53.29 -95.242,92.98 -19.848,39.68 -26.648,85.6 -17.859,132.1 v 0" />
    </g>
  </g>
</svg>